<svg width="37" height="25" viewBox="0 0 37 25" fill="none" xmlns="http://www.w3.org/2000/svg">
<path d="M21.0873 11.3206L21.0904 12.0288C21.0904 14.9721 20.918 17.6554 20.6584 19.4046L20.4309 20.4924C20.3044 21.0685 20.138 21.7244 19.9646 22.0593C19.3297 23.2842 18.0882 24.0421 16.7595 24.0421H16.6439C15.7777 24.0134 13.9581 23.2534 13.9581 23.2269C11.0301 21.9984 5.38135 18.2906 2.77243 15.6473L2.01429 14.8537C1.81576 14.6386 1.59272 14.384 1.45425 14.1856C0.991707 13.5732 0.760437 12.8153 0.760437 12.0575C0.760437 11.2115 1.02007 10.425 1.51097 9.78173L2.28989 8.94111L2.46442 8.76172C4.83166 6.19517 11.0127 1.99836 14.2461 0.713983L14.7343 0.526896C15.3217 0.316333 16.1448 0.0651852 16.6439 0.0420532C17.2788 0.0420532 17.8853 0.189657 18.4635 0.48046C19.1857 0.888023 19.7617 1.53131 20.0802 2.28916C20.2831 2.81349 20.6017 4.38867 20.6017 4.41731C20.8937 6.00553 21.063 8.51169 21.0873 11.3206ZM36.7604 12.0429C36.7604 13.7195 35.4143 15.0787 33.7539 15.0787L26.3555 14.4244C25.0529 14.4244 23.997 13.3582 23.997 12.0429C23.997 10.7255 25.0529 9.66144 26.3555 9.66144L33.7539 9.00714C35.4143 9.00714 36.7604 10.3664 36.7604 12.0429Z" fill="#2A303D"/>
</svg>
